<svg width="50" height="63" viewBox="0 0 50 63" fill="none" xmlns="http://www.w3.org/2000/svg">
<path d="M23.8948 29.7934L9.46464 23.4502L0 32.3917L3.26532 48.9493L34.8941 60.3366L50 37.2395L43.3604 19.9233L30.8745 19.7794L23.8948 29.7934Z" fill="#FFCFDB"/>
<path d="M32.8625 16.9893L33.7606 20.6731L35.0641 20.865" stroke="#FF8945" stroke-width="2" stroke-miterlimit="10"/>
<path d="M35.5568 15.9866L36.5464 20.0192L37.6319 20.1674" stroke="#FF8945" stroke-width="2" stroke-miterlimit="10"/>
<path d="M34.7546 1.58689L38.5866 0.771645L42.5974 1.75691L40.2258 3.41355L41.0716 12.4117L39.2929 17.1244L31.8816 18.7811L28.237 18.768L18.162 20.5859L15.3632 15.0231L26.8158 16.222L29.401 11.082L22.2513 9.25538L18.1141 1.21632L19.8099 0L32.5661 4.88273L34.7546 1.58689Z" fill="#F6C913"/>
<g style="mix-blend-mode:multiply">
<path d="M18.162 20.5859L28.237 18.7679" stroke="#F6C913" stroke-width="2" stroke-miterlimit="10"/>
</g>
<g style="mix-blend-mode:multiply">
<path d="M19.4263 3.69255L22.2513 9.25537L29.401 11.082" stroke="#F6C913" stroke-width="2" stroke-miterlimit="10"/>
</g>
<g style="mix-blend-mode:multiply">
<path d="M3.26526 48.9493L34.894 60.3365" stroke="#FFCFDB" stroke-width="4" stroke-miterlimit="10"/>
</g>
</svg>
