<svg width="56" height="55" viewBox="0 0 56 55" fill="none" xmlns="http://www.w3.org/2000/svg">
<circle cx="28" cy="27.5" r="27.5" fill="white"/>
<g clip-path="url(#clip0_969_4248)">
<path d="M43.8334 20.4982C43.4646 19.1205 42.3819 18.0379 41.0043 17.6691C38.5071 17 28.4998 17 28.4998 17C28.4998 17 18.4926 17 15.998 17.6691C14.6203 18.0379 13.5377 19.1205 13.1689 20.4982C12.4998 22.9928 12.4998 28.2005 12.4998 28.2005C12.4998 28.2005 12.4998 33.4083 13.1689 35.9029C13.5377 37.2805 14.6203 38.3632 15.998 38.732C18.4926 39.4011 28.4998 39.4011 28.4998 39.4011C28.4998 39.4011 38.507 39.4011 41.0016 38.732C42.3793 38.3632 43.4619 37.2805 43.8307 35.9029C44.4998 33.4083 44.4998 28.2005 44.4998 28.2005C44.4998 28.2005 44.4998 22.9928 43.8307 20.4982H43.8334Z" fill="#FF0000"/>
<path d="M25.2991 32.9993L33.6152 28.1999L25.2991 23.4004V32.9993Z" fill="white"/>
</g>
<defs>
<clipPath id="clip0_969_4248">
<rect width="32" height="32" fill="white" transform="translate(12.5 12)"/>
</clipPath>
</defs>
</svg>
