<svg width="195" height="181" viewBox="0 0 195 181" fill="none" xmlns="http://www.w3.org/2000/svg">
<g style="mix-blend-mode:multiply">
<path d="M193.545 111.893L175.6 147.847L144.942 174.184L84.8678 181L48.5461 162.831L22.393 131.638L15.0007 91.7401L23.241 52.2503L39.0737 31.4094L65.5389 9.29641L105.237 0L143.894 11.4565L175.456 35.7456L194.505 71.3632L193.545 111.893Z" fill="#F6C911"/>
</g>
<g style="mix-blend-mode:hard-light">
<path d="M178.544 111.893L160.599 147.847L129.934 174.184L69.8591 181L33.5455 162.831L7.39233 131.638L0 91.7401L8.24036 52.2503L24.0731 31.4094L50.5382 9.29641L90.236 0L128.894 11.4565L160.455 35.7456L179.504 71.3632L178.544 111.893Z" fill="#EAEAEA"/>
</g>
<path d="M186.04 111.893L168.095 147.847L137.438 174.184L77.3634 181L41.0418 162.831L14.8887 131.638L7.50433 91.7401L15.7447 52.2503L31.5694 31.4094L58.0346 9.29641L97.7403 0L136.398 11.4565L167.951 35.7456L187 71.3632L186.04 111.893Z" fill="#FBFC94"/>
<path d="M61.016 57.694H72.53V61.76H61.016V57.694ZM60.902 50.398H75.532V69.284H60.902V65.218H70.972V54.464H60.902V50.398ZM59.458 83.382L58.964 79.278L60.75 77.758L71.58 74.642C71.922 75.896 72.53 77.568 72.948 78.556C62.27 81.938 60.56 82.584 59.458 83.382ZM67.4 72.172L71.314 70.234C73.214 73.35 75.57 77.53 76.596 80.19L72.34 82.47C71.466 79.772 69.262 75.44 67.4 72.172ZM59.458 83.382C59.192 82.052 58.394 79.81 57.672 78.708C58.508 78.29 59.458 77.53 59.458 76.048V50.398H64.094V79.848C64.094 79.848 59.458 81.596 59.458 83.382ZM86.818 50.664H91.302V72.628C91.302 74.718 90.998 75.934 89.706 76.656C88.452 77.378 86.704 77.454 84.234 77.454C84.12 76.2 83.588 74.3 83.018 73.122C84.348 73.198 85.792 73.198 86.21 73.16C86.666 73.16 86.818 73.046 86.818 72.552V50.664ZM77.698 50.664H89.022V54.844H82.258V84.18H77.698V50.664ZM106.768 49.22L111.024 48.194C112.088 49.752 113.076 51.88 113.418 53.362L108.896 54.464C108.63 53.058 107.718 50.892 106.768 49.22ZM99.396 52.944H120.79V57.086H99.396V52.944ZM111.214 76.162L114.292 73.578C116.572 75.44 119.916 78.176 121.512 79.924L118.282 82.888C116.8 81.064 113.608 78.214 111.214 76.162ZM101.334 66.738C101.106 65.864 100.422 63.812 99.928 62.634C100.688 62.482 101.41 61.912 102.284 61.076C103.196 60.202 106.008 57.048 107.718 53.894L111.86 55.87C109.58 59.062 106.464 62.444 103.576 64.648V64.762C103.576 64.762 101.334 65.978 101.334 66.738ZM101.334 66.738L101.22 63.584L103.234 62.33L113.038 61.874C113.038 63.014 113.114 64.61 113.228 65.522C103.88 66.13 102.284 66.32 101.334 66.738ZM114.368 58.302L118.51 59.632C114.976 66.776 109.01 72.59 102.36 76.124C101.79 75.212 100.46 73.274 99.624 72.4C105.932 69.512 111.48 64.496 114.368 58.302ZM116.876 65.446L121.018 67.042C116.724 74.566 109.542 80.608 101.904 84.256C101.372 83.268 100.004 81.254 99.168 80.342C106.54 77.378 113.228 72.058 116.876 65.446ZM129.074 48.916H133.596V78.898C133.596 81.368 133.064 82.546 131.582 83.268C130.1 83.952 127.82 84.066 124.476 84.066C124.324 82.85 123.64 80.912 123.032 79.696C125.16 79.81 127.44 79.81 128.124 79.772C128.808 79.772 129.074 79.544 129.074 78.86V48.916ZM122.386 52.64H126.68V74.072H122.386V52.64Z" fill="#333333"/>
<path d="M67.742 120.092C71.77 127.692 80.282 132.062 92.822 133.392C91.796 134.494 90.542 136.584 89.896 137.876C76.786 136.09 68.54 130.998 63.448 121.612L67.742 120.092ZM60.484 116.444H84.842V120.89H60.484V116.444ZM58.622 107.514H91.188V112.036H58.622V107.514ZM72.492 102.498H77.242V118.458H72.492V102.498ZM83.778 116.444H84.728L85.526 116.292L88.756 118.154C84.044 130.504 72.72 136.014 59.268 138.18C58.85 136.964 57.71 134.798 56.798 133.772C69.832 132.1 80.206 127.692 83.778 117.28V116.444ZM113.38 114.012H132.95V118.154H113.38V114.012ZM111.822 121.422H134.356V125.564H111.822V121.422ZM111.404 106.868H134.584V111.01H111.404V106.868ZM120.904 102.65H125.236V116.406H120.904V102.65ZM125.844 118.838H130.176V133.468C130.176 135.71 129.758 136.812 128.276 137.496C126.87 138.142 124.856 138.218 122.082 138.218C121.93 136.926 121.36 135.14 120.828 133.924C122.538 134.038 124.514 134.038 125.084 134C125.692 134 125.844 133.848 125.844 133.354V118.838ZM113.912 127.73L117.446 125.83C118.89 127.806 120.828 130.504 121.74 132.252L117.902 134.456C117.104 132.708 115.318 129.858 113.912 127.73ZM98.56 121.764C101.676 121.08 106.274 119.864 110.682 118.648L111.252 122.752C107.262 123.968 102.968 125.184 99.586 126.172L98.56 121.764ZM99.168 109.718H110.91V113.898H99.168V109.718ZM103.614 102.536H107.794V132.86C107.794 134.95 107.452 136.128 106.274 136.812C105.134 137.534 103.462 137.686 100.992 137.686C100.916 136.546 100.384 134.684 99.852 133.468C101.22 133.506 102.55 133.506 103.006 133.506C103.462 133.506 103.614 133.354 103.614 132.822V102.536Z" fill="#333333"/>
</svg>
