<svg width="56" height="55" viewBox="0 0 56 55" fill="none" xmlns="http://www.w3.org/2000/svg">
<circle cx="28" cy="27.5" r="27.5" fill="white"/>
<g clip-path="url(#clip0_969_4245)">
<g clip-path="url(#clip1_969_4245)">
<path d="M44.5001 28C44.5001 19.1634 37.3367 12 28.5001 12C19.6636 12 12.5001 19.1634 12.5001 28C12.5001 35.9859 18.3511 42.6053 26.0001 43.8056V32.625H21.9376V28H26.0001V24.475C26.0001 20.465 28.3889 18.25 32.0436 18.25C33.7942 18.25 35.6251 18.5625 35.6251 18.5625V22.5H33.6076C31.6201 22.5 31.0001 23.7334 31.0001 24.9987V28H35.4376L34.7283 32.625H31.0001V43.8056C38.6492 42.6053 44.5001 35.9862 44.5001 28Z" fill="#1877F2"/>
<path d="M34.7287 32.625L35.4381 28H31.0006V24.9987C31.0006 23.7334 31.6206 22.5 33.6081 22.5H35.6256V18.5625C35.6256 18.5625 33.7946 18.25 32.044 18.25C28.3893 18.25 26.0006 20.465 26.0006 24.475V28H21.9381V32.625H26.0006V43.8056C26.8153 43.9334 27.65 44 28.5006 44C29.3512 44 30.1859 43.9334 31.0006 43.8056V32.625H34.7287Z" fill="white"/>
</g>
</g>
<defs>
<clipPath id="clip0_969_4245">
<rect width="32" height="32" fill="white" transform="translate(12.5 12)"/>
</clipPath>
<clipPath id="clip1_969_4245">
<rect width="32" height="32" fill="white" transform="translate(12.5 12)"/>
</clipPath>
</defs>
</svg>
